<?xml version="1.0" encoding="UTF-8"?>
<svg id="_レイヤー_1" data-name="レイヤー 1" xmlns="http://www.w3.org/2000/svg" width="48" height="48" viewBox="0 0 48 48">
  <defs>
    <style>
      .cls-1 {
        fill: #fff;
      }
    </style>
  </defs>
  <path class="cls-1" d="m4.5,7.07c-2.48,0-4.5,2.02-4.5,4.5,0,1.42.67,2.75,1.8,3.6l20.4,15.3c1.07.8,2.53.8,3.6,0l20.4-15.3c1.13-.85,1.8-2.18,1.8-3.6,0-2.48-2.02-4.5-4.5-4.5,0,0-39,0-39,0ZM0,17.57v19.5c0,3.31,2.69,6,6,6h36c3.31,0,6-2.69,6-6v-19.5l-20.4,15.3c-2.14,1.6-5.06,1.6-7.2,0L0,17.57Z"/>
</svg>