<?xml version="1.0" encoding="UTF-8"?>
<svg id="_レイヤー_1" data-name="レイヤー 1" xmlns="http://www.w3.org/2000/svg" width="48" height="48" viewBox="0 0 48 48">
  <defs>
    <style>
      .cls-1 {
        fill: #072427;
      }
    </style>
  </defs>
  <path class="cls-1" d="m15.46,2.31C14.74.56,12.83-.36,11.02.13L2.77,2.38C1.13,2.83,0,4.31,0,6,0,29.19,18.81,48,42,48c1.69,0,3.17-1.13,3.62-2.77l2.25-8.25c.5-1.82-.43-3.72-2.17-4.44l-9-3.75c-1.53-.64-3.3-.2-4.34,1.09l-3.79,4.62c-6.6-3.12-11.94-8.47-15.06-15.06l4.62-3.78c1.28-1.05,1.72-2.81,1.09-4.34l-3.75-9h0Z"/>
</svg>